Big Bang, The (2011)(DD5.1)(AC3)(DivX)(Nl subs extern) TBS

Verenigde Staten
Actie / Thriller

geregisseerd door Tony Krantz
met Antonio Banderas, Sienna Guillory en Sam Elliott

Ned Cruz is een privé-detective die op zoek is naar een vermiste stripper, maar wanneer Ned er achter komt dat iedereen die hij ondervraagd heeft dood gevonden is, wordt de zaak erg gecompliceerd. Zijn zoektocht brengt hem verder naar de woestijn van New Mexico waar hij een paar vreemde figuren ontmoet, zoals een geflipte Russische boxer, een paar ruziënde LAPD-agenten en een oude excentrieke miljardair, die onder andere op zoek is naar zijn mooie en veel jongere vrouw... 



Director: Tony Krantz
Writer: Erik Jendresen
Stars:Antonio Banderas, Sienna Guillory and Thomas Kretschmann  
 
Storyline

A private detective is hired to find a missing stripper but the job turns complicated when everyone he questions ends up dead. From the mean streets of Los Angeles to the desolate desert of New Mexico, Cruz must contend with a brutal Russian Boxer, three brash LAPD detectives, an aged billionaire looking for the Big Bang, and the billionaire's stunningly gorgeous wife. The solution to the mystery will cost ten lives, net $30 million and just might explain - well - everything
 
  
http://www.moviemeter.nl/film/61304 
http://www.imdb.com/title/tt1307873

General

Format                           : AVI
Format/Info                      : Audio Video Interleave
File size                        : 1.46 GiB
Duration                         : 1h 36mn
Overall bit rate                 : 2 157 Kbps
Writing application              : Nandub v1.0rc2
Writing library                  : Nandub build 1853/release

Video
ID                               : 0
Format                           : MPEG-4 Visual
Format profile                   : Advanced Simple@L5
Format settings, BVOP            : Yes
Format settings, QPel            : Yes
Format settings, GMC             : No warppoints
Format settings, Matrix          : Default (H.263)
Muxing mode                      : Packed bitstream
Codec ID                         : XVID
Codec ID/Hint                    : XviD
Duration                         : 1h 36mn
Bit rate                         : 1 699 Kbps
Width                            : 720 pixels
Height                           : 304 pixels
Display aspect ratio             : 2.35:1
Frame rate                       : 25.000 fps
Color space                      : YUV
Chroma subsampling               : 4:2:0
Bit depth                        : 8 bits
Scan type                        : Progressive
Bits/(Pixel*Frame)               : 0.311
Stream size                      : 1.15 GiB (79%)
Writing library                  : XviD 1.2.1 (UTC 2008-12-04)

Audio
ID                               : 1
Format                           : AC-3
Format/Info                      : Audio Coding 3
Mode extension                   : CM (complete main)
Codec ID                         : 2000
Duration                         : 1h 36mn
Bit rate mode                    : Constant
Bit rate                         : 448 Kbps
Channel(s)                       : 6 channels
Channel positions                : Front: L C R, Side: L R, LFE
Sampling rate                    : 48.0 KHz
Bit depth                        : 16 bits
Stream size                      : 311 MiB (21%)
Alignment                        : Split accross interleaves
Interleave, duration             : 40 ms (1.00 video frame)
Interleave, preload duration     : 500 ms

